<svg width="20" height="20" viewBox="0 0 20 20" fill="none" xmlns="http://www.w3.org/2000/svg">
<path d="M7.00061 9.99963L9.00061 11.9996L13.0006 7.99963M5.83535 2.69668C6.55288 2.63942 7.23407 2.35727 7.78193 1.89038C9.06042 0.800862 10.9408 0.800862 12.2193 1.89038C12.7672 2.35727 13.4483 2.63942 14.1659 2.69668C15.8403 2.8303 17.1699 4.15994 17.3036 5.83437C17.3608 6.55191 17.643 7.23309 18.1099 7.78095C19.1994 9.05944 19.1994 10.9398 18.1099 12.2183C17.643 12.7662 17.3608 13.4474 17.3036 14.1649C17.1699 15.8393 15.8403 17.169 14.1659 17.3026C13.4483 17.3598 12.7672 17.642 12.2193 18.1089C10.9408 19.1984 9.06042 19.1984 7.78193 18.1089C7.23407 17.642 6.55288 17.3598 5.83535 17.3026C4.16092 17.169 2.83128 15.8393 2.69766 14.1649C2.6404 13.4474 2.35824 12.7662 1.89136 12.2183C0.801839 10.9398 0.801839 9.05944 1.89136 7.78095C2.35824 7.23309 2.6404 6.55191 2.69766 5.83437C2.83128 4.15994 4.16092 2.8303 5.83535 2.69668Z" stroke="#00BFAF" stroke-width="2" stroke-linecap="round" stroke-linejoin="round"/>
</svg>
